<?xml version="1.0" encoding="UTF-8" standalone="no"?>
<!-- Created with Inkscape (http://www.inkscape.org/) -->

<svg
   width="211.66702pt"
   height="132.29201pt"
   viewBox="0 0 74.67142 46.66968"
   version="1.1"
   id="svg1"
   xml:space="preserve"
   xmlns="http://www.w3.org/2000/svg"
   xmlns:svg="http://www.w3.org/2000/svg"><defs
     id="defs1" /><g
     id="layer1"><g
       id="g2"
       transform="matrix(0.35624258,0,0,0.4408158,0.4171509,-42.134457)"><path
         style="fill:#fcfcfc"
         d="m -1.1709743,195.52919 v -5.88787 l 23.3494793,-11.69233 23.34948,-11.69233 -23.34948,-0.0148 -23.3494793,-0.0148 v -3.57188 -3.57188 H 46.454027 94.079028 v 21.1667 21.16667 h -3.571875 -3.571875 v -16.00729 -16.00729 h -0.132677 -0.132676 l -32.018176,16.00729 -32.018176,16.00729 -3.898628,-0.0146 -3.898627,-0.0146 35.057292,-17.56557 35.057293,-17.56557 -7.871749,-0.0146 -7.87175,-0.0146 -35.189189,17.59499 -35.1891893,17.59499 z M 115.2457,180.25 v -21.16667 h 47.625 47.625 v 3.57188 3.57188 l -23.21719,0.0146 -23.21719,0.0146 23.21719,11.6274 23.21719,11.6274 v 1.98433 1.98433 l -27.25158,-13.6263 -27.25157,-13.62629 -7.87187,0.0146 -7.87186,0.0146 35.05729,17.56557 35.0573,17.56557 -11.70825,0.0146 -11.70824,0.0146 -32.27874,-16.1398 -32.27873,-16.1398 v 16.1398 16.1398 h -3.57188 -3.57187 z M -1.1709743,134.34479 v -3.57188 l 23.3494793,-0.0148 23.34948,-0.0148 -23.34948,-11.69233 -23.3494793,-11.69233 v -1.91918 -1.91918 l 27.2515753,13.6263 27.251575,13.62629 7.871863,-0.0146 7.871863,-0.0146 L 34.01861,113.17811 -1.0386826,95.612539 10.797445,95.597929 22.633573,95.583319 54.651749,111.59061 86.669925,127.5979 h 0.132676 0.132677 V 111.59062 95.583328 h 3.571875 3.571875 V 116.75 137.91667 H 46.454027 -1.1709743 Z M 115.2457,116.75 V 95.583328 h 3.57187 3.57188 v 16.139802 16.1398 l 32.27873,-16.1398 32.27874,-16.139802 3.77074,0.01461 3.77075,0.01461 -35.0573,17.565572 -35.05729,17.56557 7.87175,0.0146 7.87175,0.0146 35.18919,-17.59499 35.18919,-17.594988 v 5.953028 5.95302 l -23.21719,11.6274 -23.21719,11.6274 23.21719,0.0146 23.21719,0.0146 v 3.57188 3.57188 h -47.625 -47.625 z"
         id="path4" /><path
         style="fill:#c70f2d"
         d="m 34.01861,183.82188 35.057292,-17.56557 h 7.937501 7.9375 L 49.89361,183.82188 14.836318,201.38745 H 6.8988176 -1.0386826 Z M 94.079028,180.25 V 159.08333 H 46.454027 -1.1709743 V 148.5 137.91667 H 46.454027 94.079028 V 116.75 95.583328 H 104.66236 115.2457 V 116.75 137.91667 h 47.625 47.625 V 148.5 159.08333 h -47.625 -47.625 V 180.25 201.41667 H 104.66236 94.079028 Z m 81.227082,3.57188 -35.05729,-17.56557 7.87186,-0.0146 7.87187,-0.0146 27.25157,13.62629 27.25158,13.6263 v 3.9685 3.96849 l -0.0661,-0.0146 -0.0661,-0.0146 z M 26.014964,117.13203 -1.1709743,103.52032 V 99.551624 95.58293 l 34.9911463,17.49166 34.991147,17.49165 0.110243,0.10334 0.110243,0.10333 -7.915451,-0.0146 -7.915452,-0.0146 z m 133.416146,-3.95391 35.0573,-17.565571 h 7.9375 7.9375 l -35.0573,17.565571 -35.05729,17.56557 h -7.9375 -7.9375 z"
         id="path3" /><path
         style="fill:#002068"
         d="m 22.928158,201.31195 0.110243,-0.10471 31.815832,-15.90258 31.815832,-15.90257 h 0.132606 0.132607 v 16.00729 16.00729 H 54.876597 22.817915 Z m 99.461292,-16.03508 v -16.1398 l 32.08073,16.03648 32.08073,16.03647 0.11024,0.10333 0.11024,0.10332 H 154.58042 122.38945 Z M -1.1709743,177.86875 v -11.64166 l 23.3494793,0.0146 23.34948,0.0146 -23.151042,11.61254 -23.15104225,11.61254 -0.1984375,0.0146 -0.19843755,0.0146 z m 188.3833343,0 -23.15104,-11.61254 23.21719,-0.0146 23.21719,-0.0146 v 11.64166 11.64167 l -0.0661,-0.0146 -0.0661,-0.0146 z M -1.1709743,119.13125 v -11.64167 l 0.19843755,0.0146 0.1984375,0.0146 23.15104225,11.61254 23.151042,11.61254 -23.34948,0.0146 -23.3494793,0.0146 z m 165.3866343,11.53839 0.11024,-0.10327 23.0849,-11.5387 23.0849,-11.53869 v 11.64197 11.64196 H 187.30056 164.10542 Z M 122.38945,111.72313 V 95.583328 h 32.19097 32.19097 l -0.11024,0.103325 -0.11024,0.103325 -32.08073,16.036472 -32.08073,16.03648 z M 54.788402,111.68071 23.038401,95.792762 22.928158,95.688045 22.817915,95.583328 h 32.058682 32.058681 v 16.007292 16.00729 l -0.198438,-0.0146 -0.198437,-0.0146 z"
         id="path2" /></g></g></svg>
